<svg width="76" height="60" viewBox="0 0 76 60" fill="none" xmlns="http://www.w3.org/2000/svg">
<rect width="76" height="60" rx="6" fill="#03A9F4"/>
<rect x="8" y="8" width="12" height="12" rx="1" fill="white"/>
<rect x="8" y="24" width="12" height="12" rx="1" fill="white"/>
<rect x="8" y="40" width="12" height="12" rx="1" fill="white"/>
<rect x="24" y="8" width="12" height="12" rx="1" fill="white"/>
<rect x="24" y="24" width="12" height="12" rx="1" fill="white"/>
<rect x="24" y="40" width="28" height="12" rx="1" fill="white"/>
<rect x="40" y="8" width="12" height="12" rx="1" fill="white"/>
<rect x="40" y="24" width="12" height="12" rx="1" fill="white"/>
<rect x="56" y="8" width="12" height="12" rx="1" fill="white"/>
<rect x="56" y="24" width="12" height="12" rx="1" fill="white"/>
<rect x="56" y="40" width="12" height="12" rx="1" fill="white"/>
</svg>
